BBC Deadly 60 on a Mission: S01E05 South Africa and Namibia 832x468 x264 aac mp4 w/subtitles [aularon]



- - -
Synopsis
- - -
Join Steve Backshall on one of his best ever missions to find some of the most exciting and deadly animals in Southern Africa. Steve braves the big waves of the Durban coast to get almost too close for comfort to a pack of 30 hungry blacktip sharks. Next on his list is a flight with the mighty black eagle, and then he abseils down a cliff to come face to face with a huge swarm of angry killer bees. Undaunted by a painful sting, he heads over the border into Namibia, where he has a close encounter with a sidewinder before getting hands on with the ultimate Africa predator, the lion!



- - -
URL
- - -         
http://www.bbc.co.uk/programmes/b014fhcw


- - -
Technical Details
- - -
General
Complete name                    : BBC.Deadly.60.on.a.Mission.S01E05.South.Africa.and.Namibia/Deadly_60_on_a_Mission_Series_1_-_5._South_Africa_and_Namibia_b014fhcw_default.mp4
Format                           : MPEG-4
Format profile                   : Base Media
Codec ID                         : isom
File size                        : 312 MiB
Duration                         : 29mn 3s
Overall bit rate                 : 1 501 Kbps
Movie name                       : Deadly 60 on a Mission: Series 1: South Africa and Namibia
Album                            : Deadly 60 on a Mission: Series 1
Track name/Position              : 5
Track name/Total                 : 0
Performer                        : Deadly 60 on a Mission: Series 1
Genre                            : Factual,Science & Nature
Recorded date                    : 2011-09-04T18:00:00+01:00
Tagged date                      : UTC 2011-09-04 19:51:45
Writing application              : Lavf53.10.0
Cover                            : Yes
Comment                          : Recorded using get_iplayer, by Aularon.
rtng                             : 2
stik                             : 1
desc                             : Steve Backshall is in South Africa where he braves an encounter with a pack of blacktip sharks, faces a swarm of killer bees, and  gets close to a lion.
tvnn                             : BBC One
tvsh                             : Deadly 60 on a Mission: Series 1
tven                             : b014fhcw
catg                             : Factual,Science & Nature
tvsn                             : 1
tves                             : 5

Video
ID                               : 1
Format                           : AVC
Format/Info                      : Advanced Video Codec
Format profile                   : Main@L3.0
Format settings, CABAC           : Yes
Format settings, ReFrames        : 4 frames
Format settings, GOP             : M=2, N=40
Codec ID                         : avc1
Codec ID/Info                    : Advanced Video Coding
Duration                         : 29mn 3s
Bit rate mode                    : Constant
Bit rate                         : 1 404 Kbps
Width                            : 832 pixels
Height                           : 468 pixels
Display aspect ratio             : 16:9
Frame rate mode                  : Constant
Frame rate                       : 25.000 fps
Standard                         : PAL
Color space                      : YUV
Chroma subsampling               : 4:2:0
Bit depth                        : 8 bits
Scan type                        : Progressive
Bits/(Pixel*Frame)               : 0.144
Stream size                      : 291 MiB (93%)

Audio
ID                               : 2
Format                           : AAC
Format/Info                      : Advanced Audio Codec
Format profile                   : HE-AAC / LC
Codec ID                         : 40
Duration                         : 29mn 3s
Bit rate mode                    : Constant
Bit rate                         : 96.0 Kbps
Channel(s)                       : 2 channels
Channel positions                : Front: L R
Sampling rate                    : 48.0 KHz / 24.0 KHz
Compression mode                 : Lossy
Stream size                      : 19.7 MiB (6%)
	

                  ______                                     
                 (____  \                                    
                  ____)  )_____  ____ _____ _   _  ___ _____ 
                 |  __  (| ___ |/ ___|____ | | | |/___) ___ |
            _ _ _| |__)  ) ____( (___/ ___ | |_| |___ | ____|
           (_|_|_)______/|_____)\____)_____|____/(___/|_____)
                                                              
                   ______ _                 _             
                  / _____) |               (_)            
                 ( (____ | |__  _____  ____ _ ____   ____ 
                  \____ \|  _ \(____ |/ ___) |  _ \ / _  |
                  _____) ) | | / ___ | |   | | | | ( (_| |
                 (______/|_| |_\_____|_|   |_|_| |_|\___ |
                                                   (_____|
                                  _      
                                 (_)     
                                  _  ___ 
                                 | |/___)
                                 | |___ |
                                 |_(___/ 

                    _______             _               
                   (_______)           (_)              
                    _       _____  ____ _ ____   ____   
                   | |     (____ |/ ___) |  _ \ / _  |  
                   | |_____/ ___ | |   | | | | ( (_| |_ 
                    \______)_____|_|   |_|_| |_|\___ (_)
                                               (_____|  

                                    ;)

